<svg xmlns="http://www.w3.org/2000/svg" xmlns:xlink="http://www.w3.org/1999/xlink" width="97" height="64" viewBox="0 0 1652.51 1087.84">
  <defs>
    <linearGradient id="a" x1="518.317" y1="326.71" x2="843.544" y2="1085.132" gradientUnits="userSpaceOnUse">
      <stop offset="0" stop-color="#49868a"/>
      <stop offset="0.318" stop-color="#458286"/>
      <stop offset="0.656" stop-color="#3b757c"/>
      <stop offset="1" stop-color="#29606b"/>
    </linearGradient>
    <linearGradient id="b" x1="-98.831" y1="136.821" x2="339.114" y2="1123.455" gradientUnits="userSpaceOnUse">
      <stop offset="0" stop-color="#cdeeef"/>
      <stop offset="0.158" stop-color="#c7ebec"/>
      <stop offset="0.361" stop-color="#b7e1e2"/>
      <stop offset="0.589" stop-color="#9dd1d3"/>
      <stop offset="0.833" stop-color="#79bbbe"/>
      <stop offset="0.895" stop-color="#6eb5b8"/>
    </linearGradient>
    <linearGradient id="c" x1="342.684" y1="392.564" x2="637.164" y2="1112.403" gradientUnits="userSpaceOnUse">
      <stop offset="0" stop-color="#8bc0c4"/>
      <stop offset="1" stop-color="#68999b"/>
    </linearGradient>
  </defs>
  <title>MyDevPortal</title>
  <g>
    <g>
      <ellipse cx="731.528" cy="797.354" rx="14.94" ry="24.935" transform="translate(-536.822 395.215) rotate(-37.742)" fill="none"/>
      <path d="M786.84,448.856,343.688,219.383V368.507L655.811,530.131v621.257l131.029,68.038ZM729.933,817.738c-10.66-5.519-19.3-18.636-19.3-29.3s8.641-14.826,19.3-9.306,19.3,18.636,19.3,29.3S740.593,823.258,729.933,817.738Z" transform="translate(-201.81 -219.383)" fill="#114C55"/>
      <polygon points="131.029 155.798 0 87.946 0 858.341 443.202 1087.84 443.202 938.716 131.029 777.066 131.029 155.798" fill="#24A3B7"/>
      <path d="M343.688,380.8V989.774l301.324,156.031V536.833ZM588.105,905.715c-10.66-5.52-19.3-18.637-19.3-29.3s8.641-14.827,19.3-9.307,19.3,18.636,19.3,29.3S598.765,911.235,588.105,905.715Z" transform="translate(-201.81 -219.383)" fill="#1B7988"/>
      <path d="M582.8,1113.592" transform="translate(-201.81 -219.383)" fill="none" stroke="#ffffff" stroke-miterlimit="10"/>
    </g>
    <g>
      <path fill="#ffffff" d="M902.2,448.95l79.965,199.577,79.965-199.577h41.831v244.6H1071.7V598.3l3.024-102.813-80.3,198.065h-24.7L889.6,495.988,892.79,598.3v95.252H860.535V448.95Z" transform="translate(-201.81 -219.383)"/>
      <path fill="#ffffff" d="M1207.8,604.681l62.325-106.845h23.016l-75.43,124.652v71.061h-20.159v-71.9l-74.925-123.812h23.015Z" transform="translate(-201.81 -219.383)"/>
      <path fill="#ffffff" d="M860.535,955.726v-244.6H929.58q31.915,0,56.446,14.112a95.455,95.455,0,0,1,37.883,40.151q13.356,26.041,13.523,59.8v15.623q0,34.611-13.355,60.647a93.946,93.946,0,0,1-38.135,39.982q-24.781,13.946-57.706,14.28ZM892.79,737.5v191.85h33.934q37.294,0,58.042-23.2t20.747-66.082V825.774q0-41.7-19.571-64.816T930.42,737.5Z" transform="translate(-201.81 -219.383)"/>
      <path fill="#ffffff" d="M1176.127,862.825h-96.933v75.933H1190.91v16.968H1059.2V760.013h131.035v17.471H1079.194v68.2h96.933Z" transform="translate(-201.81 -219.383)"/>
      <path fill="#ffffff" d="M1289.026,919.942l4.2,14.785,4.368-14.616,61.653-160.1h21.672l-77.781,195.713h-19.656L1205.7,760.013h21.839Z" transform="translate(-201.81 -219.383)"/>
      <path fill="#ffffff" d="M892.789,1122.146V1217.9H860.534V973.3h90.213q40.149,0,62.913,20.5t22.763,54.262q0,35.616-22.259,54.849t-63.753,19.236Zm0-26.375h57.958q25.867,0,39.646-12.2t13.775-35.257q0-21.876-13.775-35t-37.8-13.631H892.789Z" transform="translate(-201.81 -219.383)"/>
      <path fill="#ffffff" d="M1211.5,1129.872q0,41.328-22.343,66.023t-59.974,24.694q-37.464,0-60.058-24.862t-22.6-66.7v-18.479q0-27.047,10.08-47.71a74.411,74.411,0,0,1,28.979-32q18.9-11.34,43.258-11.34,36.451,0,59.049,23.771t23.6,63.922Zm-19.823-19.823q0-34.271-16.884-53.674t-45.946-19.4q-28.728,0-45.611,19.4t-16.883,54.683V1129.7q0,34.106,16.967,53.759t45.863,19.655q29.231,0,45.862-19.487t16.632-54.6Z" transform="translate(-201.81 -219.383)"/>
      <path fill="#ffffff" d="M1315.382,1139.28h-59.47V1217.9h-19.991V1022.188H1305.3q33.765,0,52.834,15.791t19.067,43.343a51.562,51.562,0,0,1-11.76,33.683q-11.76,14.364-31.079,19.739l51.742,81.478v1.679h-21.5Zm-59.47-17.135H1309q21.837,0,34.943-11.232t13.1-29.006q0-19.616-13.524-30.847t-37.714-11.4h-49.895Z" transform="translate(-201.81 -219.383)"/>
      <path fill="#ffffff" d="M1551.506,1039.66H1479.94V1217.9h-19.991V1039.66h-71.4v-17.472h162.954Z" transform="translate(-201.81 -219.383)"/>
      <path fill="#ffffff" d="M1669.409,1165.655h-94.917l-20.831,52.246H1532.83l79.629-195.713h19.319l78.957,195.713h-20.663Zm-88.2-17.135h81.309l-40.487-102.308Z" transform="translate(-201.81 -219.383)"/>
      <path fill="#ffffff" d="M1751.508,1200.934H1854.32V1217.9h-122.8V1022.188h19.991Z" transform="translate(-201.81 -219.383)"/>
    </g>
  </g>
</svg>
